<?xml version="1.0" encoding="UTF-8"?>
<svg width="30pt" height="30pt" version="1.1" viewBox="0 0 752 752" xmlns="http://www.w3.org/2000/svg">
 <g>
  <path d="m752 376c0 134.33-71.664 258.46-188 325.62-116.34 67.168-259.66 67.168-376 0-116.34-67.164-188-191.29-188-325.62s71.664-258.46 188-325.62c116.34-67.168 259.66-67.168 376 0 116.34 67.164 188 191.29 188 325.62" fill="#ffb258"/>
  <path d="m598.59 259.79c-0.089844-0.1875-72.617-78.879-72.617-78.879-0.097656 0-0.097656 0-0.20703-0.20703-0.60156-0.41406-1.2227-1.0156-2.0234-1.2227h-0.097656c-0.81641-0.38672-1.7266-0.80078-2.6328-0.80078h-290.42c-2.625 0-4.9336 1.6094-6.0586 4.0273l-71.125 76.875s-2.0039 1.2812-2.0625 4.1836c-0.078125 3.8594 2.0625 5.0898 2.0625 5.0898l133.67 144.66c-0.20703 0.41406-0.49219 0.80859-0.69922 1.0156-12.215 13.715-21.793 24.418-21.793 34.918v106.53c0 9.4805 7.668 17.355 17.258 17.355h138.71c0.80859 0 1.6094 0 2.1328-0.20703 16.031-1.4023 28.137-14.73 28.137-30.863 0-2.625-0.41406-5.25-1.0156-7.875 10.289-5.043 17.148-15.746 17.148-27.645 0-5.6445-1.4023-11.09-4.3398-15.746 4.8555-5.6445 7.5586-12.914 7.5586-20.375 0-8.2695-3.1172-15.746-8.4766-20.582 3.2461-4.0273 6.668-10.703 6.668-20.789 0-5.457-1.5273-10.496-4.1523-14.938l134.38-145.47c0 0.015625 2.7031-3.6953 0-9.0547zm-93.117-67.395-57.086 61.734-57.098-61.734zm-129.41 208.22c1.9258-9.2734 3.7188-23.414 2.3203-39.336-2.7227-30.664-17.75-51.855-37.332-52.668-7.457-0.39453-12.805 0.20703-16.734 1.0156l-11.898-38.527h126.79l-39.832 129.52zm56.797-143.24h-114.11l56.996-61.754zm-129.43-3.4258-56.898-61.555h113.69zm-72.625-58.121 56.879 61.547h-113.67zm-56.793 75.27h124.17l15.035 48.402v0.20703c3.0195 12.914 7.0625 36.918 5.043 45.801-3.0391 13.328-12.215 26.027-22.09 37.73zm274.59 223.75c3.1172 3.2266 4.8359 7.457 4.8359 11.898 0 8.082-5.8516 15.332-13.922 16.941-2.1133 0.62109-3.8164 2.0234-4.7344 4.0469-0.90625 1.8164-0.80859 4.0273 0.1875 6.0586 1.5273 2.625 2.2305 5.4375 2.2305 8.4766 0 9.0664-6.7578 16.547-15.844 17.355h-0.69922-138.82c-2.0039 0-3.7188-1.6289-3.7188-3.6406l-0.003906-106.53c0-5.25 9.7695-16.16 18.34-25.828 13.535-15.145 30.27-34.109 35.016-55.082 2.625-11.711-1.4219-34.504-3.7383-45.801 2.832-0.41406 6.9648-0.80859 12.805-0.62109 12.008 0.41406 22.289 17.355 24.32 40.371 1.8164 19.961-2.2305 36.711-3.9453 43.156-0.60156 2.0234-0.078125 4.2344 1.1133 5.8711 1.3203 1.6094 3.3242 2.8125 5.457 2.8125h74.648c5.9492 0 12.598 6.4609 12.598 14.938 0 9.0664-3.8164 12.914-5.5352 14.316-2.5156 1.8164-3.8398 4.8555-3.5312 7.875 0.20703 3.0391 2.1133 5.8516 4.8359 7.2695 2.9297 1.4023 6.1562 5.4375 6.1562 11.898 0 5.6445-2.625 10.703-7.1719 13.922-1.5078 1.1953-2.5156 3.0195-2.7031 5.043-0.089844 1.8203 0.5 3.8242 1.8242 5.2539zm6.2461-90.395c-3.8164-2.418-8.0625-3.8398-12.707-3.8398h-28.555l39.852-129.52h124.58zm9.0859-147.07 57.086-61.754 56.996 61.754z" fill="#9b9b9b"/>
  <path d="m218.7 437.34c-14.938 0-27.152 12.105-27.152 27.23v81.504c0.007812 15.148 12.215 27.254 27.152 27.254 15.016 0 27.23-12.105 27.23-27.25v-81.504c0-15.129-12.215-27.234-27.23-27.234zm13.613 108.74c0 7.4805-6.0586 13.535-13.617 13.535-7.4805 0-13.637-6.0586-13.637-13.535v-81.504c0-7.457 6.1562-13.508 13.637-13.508 7.5586 0 13.617 6.0586 13.617 13.508z" fill="#9b9b9b"/>
  <path d="m300.22 536.7c-3.543 0-6.4141-2.8711-6.4141-6.4141v-70.535c0-3.543 2.8711-6.4141 6.4141-6.4141s6.4141 2.8711 6.4141 6.4141v70.535c0 3.543-2.8711 6.4141-6.4141 6.4141z" fill="#9b9b9b"/>
 </g>
</svg>